<?xml version="1.0" standalone="no"?>
<!DOCTYPE svg PUBLIC "-//W3C//DTD SVG 20010904//EN"
 "http://www.w3.org/TR/2001/REC-SVG-20010904/DTD/svg10.dtd">
<svg version="1.0" xmlns="http://www.w3.org/2000/svg"
 width="1254.000000pt" height="1254.000000pt" viewBox="0 0 1254.000000 1254.000000"
 preserveAspectRatio="xMidYMid meet">

<g transform="translate(0.000000,1254.000000) scale(0.100000,-0.100000)"
fill="#000000" stroke="none">
<path d="M6128 10703 c6 -2 18 -2 25 0 6 3 1 5 -13 5 -14 0 -19 -2 -12 -5z"/>
<path d="M6207 10703 c18 -2 50 -2 70 0 21 2 7 4 -32 4 -38 0 -55 -2 -38 -4z"/>
<path d="M6361 10035 c0 -5 6 -21 14 -35 8 -14 14 -20 14 -15 0 6 -6 21 -14
35 -8 14 -14 21 -14 15z"/>
<path d="M6391 9967 c-1 -12 41 -108 45 -104 3 2 -7 28 -20 58 -14 30 -25 50
-25 46z"/>
<path d="M6052 9805 c-12 -25 -20 -45 -17 -45 7 0 47 81 43 86 -3 2 -14 -17
-26 -41z"/>
<path d="M4319 9743 c-13 -16 -12 -17 4 -4 9 7 17 15 17 17 0 8 -8 3 -21 -13z"/>
<path d="M6007 9715 c-9 -19 -15 -35 -12 -35 7 0 37 61 33 66 -3 2 -12 -12
-21 -31z"/>
<path d="M6510 9675 c0 -5 5 -17 10 -25 5 -8 10 -10 10 -5 0 6 -5 17 -10 25
-5 8 -10 11 -10 5z"/>
<path d="M5956 9613 c-6 -14 -5 -15 5 -6 7 7 10 15 7 18 -3 3 -9 -2 -12 -12z"/>
<path d="M5902 9505 c-17 -36 -30 -65 -27 -65 7 0 67 121 63 126 -2 2 -18 -26
-36 -61z"/>
<path d="M6560 9555 c0 -5 5 -17 10 -25 5 -8 10 -10 10 -5 0 6 -5 17 -10 25
-5 8 -10 11 -10 5z"/>
<path d="M6590 9485 c0 -5 5 -17 10 -25 5 -8 10 -10 10 -5 0 6 -5 17 -10 25
-5 8 -10 11 -10 5z"/>
<path d="M6611 9435 c0 -5 6 -21 14 -35 8 -14 14 -20 14 -15 0 6 -6 21 -14 35
-8 14 -14 21 -14 15z"/>
<path d="M5800 9300 c-6 -11 -8 -20 -6 -20 3 0 10 9 16 20 6 11 8 20 6 20 -3
0 -10 -9 -16 -20z"/>
<path d="M6660 9315 c0 -5 5 -17 10 -25 5 -8 10 -10 10 -5 0 6 -5 17 -10 25
-5 8 -10 11 -10 5z"/>
<path d="M6696 9227 c3 -10 9 -15 12 -12 3 3 0 11 -7 18 -10 9 -11 8 -5 -6z"/>
<path d="M6710 9195 c0 -5 5 -17 10 -25 5 -8 10 -10 10 -5 0 6 -5 17 -10 25
-5 8 -10 11 -10 5z"/>
<path d="M8401 9155 c1 -19 18 -51 18 -35 0 8 -4 22 -9 30 -5 8 -9 11 -9 5z"/>
<path d="M6740 9111 c0 -6 4 -13 10 -16 6 -3 7 1 4 9 -7 18 -14 21 -14 7z"/>
<path d="M8431 9060 c0 -8 4 -22 9 -30 12 -18 12 -2 0 25 -6 13 -9 15 -9 5z"/>
<path d="M8451 8994 c0 -11 3 -14 6 -6 3 7 2 16 -1 19 -3 4 -6 -2 -5 -13z"/>
<path d="M6790 8995 c0 -5 5 -17 10 -25 5 -8 10 -10 10 -5 0 6 -5 17 -10 25
-5 8 -10 11 -10 5z"/>
<path d="M8461 8960 c0 -8 4 -24 9 -35 5 -13 9 -14 9 -5 0 8 -4 24 -9 35 -5
13 -9 14 -9 5z"/>
<path d="M8480 8893 c0 -5 7 -46 16 -93 29 -162 34 -206 41 -392 12 -361 -51
-711 -186 -1022 -12 -27 -20 -50 -18 -53 4 -4 43 86 82 192 42 110 92 320 115
471 22 156 28 454 10 591 -13 103 -51 313 -56 313 -2 0 -4 -3 -4 -7z"/>
<path d="M6287 8870 c6 -8 16 -42 22 -75 l10 -60 -4 59 c-3 40 -10 64 -21 75
-14 12 -15 13 -7 1z"/>
<path d="M6840 8875 c0 -5 5 -17 10 -25 5 -8 10 -10 10 -5 0 6 -5 17 -10 25
-5 8 -10 11 -10 5z"/>
<path d="M6866 8810 c3 -14 11 -32 16 -40 6 -10 7 -7 2 10 -3 14 -11 32 -16
40 -6 10 -7 7 -2 -10z"/>
<path d="M6920 8671 c0 -6 4 -13 10 -16 6 -3 7 1 4 9 -7 18 -14 21 -14 7z"/>
<path d="M6050 8616 c0 -2 7 -7 16 -10 8 -3 12 -2 9 4 -6 10 -25 14 -25 6z"/>
<path d="M6961 8575 c0 -5 6 -21 14 -35 8 -14 14 -20 14 -15 0 6 -6 21 -14 35
-8 14 -14 21 -14 15z"/>
<path d="M8296 7263 c-6 -14 -5 -15 5 -6 7 7 10 15 7 18 -3 3 -9 -2 -12 -12z"/>
<path d="M7931 6195 c0 -14 59 -123 59 -109 0 6 -13 35 -30 65 -16 30 -30 50
-29 44z"/>
<path d="M8060 5995 c13 -14 26 -25 28 -25 3 0 -5 11 -18 25 -13 14 -26 25
-28 25 -3 0 5 -11 18 -25z"/>
<path d="M8080 5932 c0 -12 19 -26 26 -19 2 2 -2 10 -11 17 -9 8 -15 8 -15 2z"/>
<path d="M8003 5863 c15 -2 39 -2 55 0 15 2 2 4 -28 4 -30 0 -43 -2 -27 -4z"/>
<path d="M8153 5848 c13 -8 254 -11 245 -3 -3 3 -62 7 -131 8 -70 2 -121 -1
-114 -5z"/>
<path d="M7468 5843 c39 -2 105 -2 145 0 39 1 7 3 -73 3 -80 0 -112 -2 -72 -3z"/>
<path d="M7978 5843 c7 -3 16 -2 19 1 4 3 -2 6 -13 5 -11 0 -14 -3 -6 -6z"/>
<path d="M5600 5680 c12 -16 24 -30 26 -30 3 0 -4 14 -16 30 -12 17 -24 30
-26 30 -3 0 4 -13 16 -30z"/>
<path d="M2070 5285 c0 -5 5 -17 10 -25 5 -8 10 -10 10 -5 0 6 -5 17 -10 25
-5 8 -10 11 -10 5z"/>
<path d="M2911 4760 c-3 -631 -3 -627 15 -660 9 -14 12 -16 7 -5 -4 11 -10
286 -13 610 l-5 590 -4 -535z"/>
<path d="M3312 4704 c-2 -545 -1 -593 15 -605 15 -13 16 -12 7 6 -5 11 -11
274 -14 605 l-5 585 -3 -591z"/>
<path d="M1980 5159 c0 -3 -16 -43 -36 -89 -19 -47 -53 -128 -74 -180 -21 -52
-59 -144 -85 -204 -25 -59 -44 -111 -41 -114 3 -2 9 4 12 14 4 10 19 48 35 84
27 64 44 106 148 359 28 69 49 127 46 129 -3 3 -5 3 -5 1z"/>
<path d="M2120 5159 c0 -4 9 -26 20 -50 11 -24 19 -37 19 -29 0 15 -38 91 -39
79z"/>
<path d="M2176 5017 c3 -10 9 -15 12 -12 3 3 0 11 -7 18 -10 9 -11 8 -5 -6z"/>
<path d="M2190 4987 c0 -13 52 -138 56 -134 2 2 -7 32 -21 67 -23 59 -35 82
-35 67z"/>
<path d="M5141 4860 c0 -15 -6 -31 -13 -38 -9 -9 -9 -12 0 -12 16 0 25 23 19
52 -4 22 -4 22 -6 -2z"/>
<path d="M3850 4851 c-80 -25 -142 -82 -181 -166 -33 -73 -43 -105 -32 -105 4
0 16 26 25 59 22 72 84 153 140 182 22 11 71 24 107 29 62 7 63 7 16 8 -27 0
-61 -3 -75 -7z"/>
<path d="M4698 4850 c-43 -13 -98 -60 -121 -104 -18 -34 -22 -58 -22 -136 0
-62 5 -102 13 -115 l14 -20 -7 20 c-14 41 -17 144 -6 192 14 57 58 116 104
140 18 9 57 19 87 23 55 7 55 7 10 8 -25 0 -57 -3 -72 -8z"/>
<path d="M5492 4788 c-1 -42 -5 -85 -8 -95 -5 -13 -4 -15 5 -7 8 7 11 39 8 95
l-3 84 -2 -77z"/>
<path d="M6197 4843 c-100 -34 -175 -132 -203 -265 -33 -159 30 -379 129 -447
15 -10 12 -4 -10 22 -86 99 -118 200 -111 353 4 86 9 110 35 165 53 114 130
167 258 179 l70 7 -60 1 c-33 0 -82 -6 -108 -15z"/>
<path d="M2250 4835 c0 -5 5 -17 10 -25 5 -8 10 -10 10 -5 0 6 -5 17 -10 25
-5 8 -10 11 -10 5z"/>
<path d="M5793 4827 c3 -9 2 -31 -3 -49 -9 -30 -8 -31 5 -14 18 24 20 62 3 72
-7 5 -9 2 -5 -9z"/>
<path d="M2274 4780 c9 -32 39 -101 43 -97 2 3 -8 29 -22 58 -14 30 -23 47
-21 39z"/>
<path d="M5660 4781 c25 -4 52 -10 60 -15 8 -4 6 0 -4 8 -12 10 -37 15 -60 15
l-41 -2 45 -6z"/>
<path d="M5563 4751 c-17 -15 -41 -47 -52 -69 -20 -39 -21 -60 -24 -307 l-2
-266 25 -19 25 -19 -100 -3 c-95 -4 -94 -4 25 -5 69 0 116 1 105 4 -11 3 -30
14 -42 26 -23 20 -23 24 -23 272 0 289 6 321 71 380 21 19 36 35 31 35 -4 0
-22 -13 -39 -29z"/>
<path d="M5040 4720 c12 -23 23 -69 26 -103 12 -131 -65 -224 -226 -274 l-45
-13 41 5 c183 22 294 211 219 373 -13 28 -27 52 -30 52 -3 0 4 -18 15 -40z"/>
<path d="M10669 4733 c-13 -16 -12 -17 4 -4 16 13 21 21 13 21 -2 0 -10 -8
-17 -17z"/>
<path d="M4221 4713 c7 -12 15 -20 18 -17 3 2 -3 12 -13 22 -17 16 -18 16 -5
-5z"/>
<path d="M4246 4655 c4 -16 11 -48 15 -70 7 -36 8 -35 4 13 -2 28 -9 60 -15
70 -9 14 -10 11 -4 -13z"/>
<path d="M2326 4650 c3 -14 11 -32 16 -40 6 -10 7 -7 2 10 -3 14 -11 32 -16
40 -6 10 -7 7 -2 -10z"/>
<path d="M6696 4600 c25 -75 27 -125 10 -228 -18 -110 -107 -222 -221 -278
-51 -25 -75 -30 -165 -34 -95 -5 -100 -6 -50 -11 125 -15 243 25 333 114 82
79 120 164 125 278 4 90 -12 175 -42 214 -10 13 -7 -6 10 -55z"/>
<path d="M2355 4573 c4 -10 16 -42 27 -71 12 -29 23 -51 25 -48 5 5 -47 136
-54 136 -3 0 -2 -8 2 -17z"/>
<path d="M3637 4553 c-4 -3 -6 -40 -5 -82 l2 -76 5 75 6 75 295 5 295 5 -296
3 c-163 1 -299 -1 -302 -5z"/>
<path d="M1776 4528 c14 -6 36 -6 65 0 l44 10 -65 0 c-51 1 -60 -2 -44 -10z"/>
<path d="M1689 4453 c-13 -32 -24 -60 -25 -63 0 -3 -11 -27 -23 -55 -54 -121
-75 -215 -50 -231 8 -4 9 1 4 15 -11 36 17 133 75 256 21 45 50 128 47 132 -3
2 -15 -22 -28 -54z"/>
<path d="M2411 4435 c0 -5 6 -21 14 -35 8 -14 14 -20 14 -15 0 6 -6 21 -14 35
-8 14 -14 21 -14 15z"/>
<path d="M3642 4375 c0 -11 3 -29 8 -40 11 -25 11 1 0 35 -6 20 -8 21 -8 5z"/>
<path d="M4590 4370 c8 -5 20 -10 25 -10 6 0 3 5 -5 10 -8 5 -19 10 -25 10 -5
0 -3 -5 5 -10z"/>
<path d="M4575 4307 c-46 -44 -56 -76 -34 -107 8 -12 9 -9 5 13 -9 39 16 81
66 111 25 15 36 26 26 26 -10 0 -38 -19 -63 -43z"/>
<path d="M2452 4332 c2 -4 16 -40 32 -80 15 -40 30 -71 33 -69 5 6 -56 157
-64 157 -2 0 -3 -3 -1 -8z"/>
<path d="M4703 4333 c9 -2 23 -2 30 0 6 3 -1 5 -18 5 -16 0 -22 -2 -12 -5z"/>
<path d="M3666 4297 c3 -10 9 -15 12 -12 3 3 0 11 -7 18 -10 9 -11 8 -5 -6z"/>
<path d="M3680 4264 c0 -6 7 -19 16 -30 14 -18 14 -18 3 6 -14 31 -19 36 -19
24z"/>
<path d="M4260 4234 c0 -5 -21 -31 -48 -58 -45 -48 -154 -108 -212 -119 -14
-2 -6 -3 18 -1 45 4 107 32 160 72 40 30 97 101 88 109 -3 4 -6 2 -6 -3z"/>
<path d="M6030 4149 c44 -41 106 -74 158 -84 15 -3 2 5 -28 17 -61 26 -130 66
-130 77 0 3 -10 12 -22 19 -13 7 -3 -6 22 -29z"/>
<path d="M3665 4150 c10 -11 20 -20 23 -20 3 0 -3 9 -13 20 -10 11 -20 20 -23
20 -3 0 3 -9 13 -20z"/>
<path d="M3710 4115 c0 -7 61 -37 66 -33 2 3 -12 12 -31 21 -19 9 -35 15 -35
12z"/>
<path d="M3340 4068 c0 -4 14 -8 30 -8 17 0 30 2 30 4 0 2 -13 6 -30 8 -16 3
-30 1 -30 -4z"/>
<path d="M3800 4070 c8 -5 20 -10 25 -10 6 0 3 5 -5 10 -8 5 -19 10 -25 10 -5
0 -3 -5 5 -10z"/>
<path d="M1503 4063 c31 -2 83 -2 115 0 31 2 5 3 -58 3 -63 0 -89 -1 -57 -3z"/>
<path d="M2378 4063 c12 -2 30 -2 40 0 9 3 -1 5 -23 4 -22 0 -30 -2 -17 -4z"/>
<path d="M2533 4063 c20 -2 54 -2 75 0 20 2 3 4 -38 4 -41 0 -58 -2 -37 -4z"/>
<path d="M2818 4063 c34 -2 90 -2 125 0 34 2 6 3 -63 3 -69 0 -97 -1 -62 -3z"/>
<path d="M3193 4063 c20 -2 54 -2 75 0 20 2 3 4 -38 4 -41 0 -58 -2 -37 -4z"/>
<path d="M5139 4033 c76 -151 -55 -326 -274 -364 -88 -15 -246 -7 -303 16 -24
10 -45 15 -48 12 -14 -14 102 -39 201 -44 171 -8 279 24 372 110 52 47 68 76
83 143 13 58 -1 123 -32 151 -20 17 -20 17 1 -24z"/>
<path d="M3853 4053 c9 -2 25 -2 35 0 9 3 1 5 -18 5 -19 0 -27 -2 -17 -5z"/>
<path d="M4558 4032 c-65 -48 -99 -137 -77 -203 7 -19 16 -38 21 -44 5 -5 3 5
-3 23 -6 18 -9 57 -7 86 5 62 35 107 93 142 22 13 33 24 25 24 -8 -1 -32 -13
-52 -28z"/>
<path d="M4673 4053 c26 -2 67 -2 90 0 23 2 2 3 -48 3 -49 0 -68 -1 -42 -3z"/>
<path d="M4893 4043 c15 -2 37 -2 50 0 12 2 0 4 -28 4 -27 0 -38 -2 -22 -4z"/>
<path d="M3550 2756 c0 -2 13 -6 29 -8 17 -2 28 -1 25 4 -5 8 -54 12 -54 4z"/>
<path d="M4058 2708 c5 -89 9 -97 11 -20 0 39 -2 72 -6 72 -5 0 -7 -24 -5 -52z"/>
<path d="M6550 2750 c0 -5 5 -10 11 -10 5 0 7 5 4 10 -3 6 -8 10 -11 10 -2 0
-4 -4 -4 -10z"/>
<path d="M7790 2720 c0 -22 2 -40 4 -40 2 0 6 18 8 40 2 22 0 40 -4 40 -5 0
-8 -18 -8 -40z"/>
<path d="M7848 2753 c7 -3 16 -2 19 1 4 3 -2 6 -13 5 -11 0 -14 -3 -6 -6z"/>
<path d="M8954 2675 c0 -49 1 -71 3 -48 2 23 2 64 0 90 -2 26 -3 8 -3 -42z"/>
<path d="M8073 2710 c0 -25 2 -35 4 -22 2 12 2 32 0 45 -2 12 -4 2 -4 -23z"/>
<path d="M5523 2685 c0 -27 2 -38 4 -22 2 15 2 37 0 50 -2 12 -4 0 -4 -28z"/>
<path d="M7013 2685 c0 -22 2 -30 4 -17 2 12 2 30 0 40 -3 9 -5 -1 -4 -23z"/>
<path d="M4745 2699 c-4 -6 -5 -12 -2 -15 2 -3 7 2 10 11 7 17 1 20 -8 4z"/>
<path d="M6552 2675 c0 -16 2 -22 5 -12 2 9 2 23 0 30 -3 6 -5 -1 -5 -18z"/>
<path d="M4310 2675 c0 -5 5 -17 10 -25 5 -8 10 -10 10 -5 0 6 -5 17 -10 25
-5 8 -10 11 -10 5z"/>
<path d="M5672 2660 c0 -14 2 -19 5 -12 2 6 2 18 0 25 -3 6 -5 1 -5 -13z"/>
<path d="M7563 2635 c0 -27 2 -38 4 -22 2 15 2 37 0 50 -2 12 -4 0 -4 -28z"/>
<path d="M9146 2665 c-9 -26 -7 -32 5 -12 6 10 9 21 6 23 -2 3 -7 -2 -11 -11z"/>
<path d="M4741 2634 c0 -11 3 -14 6 -6 3 7 2 16 -1 19 -3 4 -6 -2 -5 -13z"/>
<path d="M8713 2643 c9 -2 23 -2 30 0 6 3 -1 5 -18 5 -16 0 -22 -2 -12 -5z"/>
<path d="M7792 2620 c0 -14 2 -19 5 -12 2 6 2 18 0 25 -3 6 -5 1 -5 -13z"/>
<path d="M5661 2623 c-1 -7 -10 -22 -21 -33 -11 -11 -16 -20 -12 -20 16 0 44
39 39 52 -4 10 -6 10 -6 1z"/>
<path d="M6280 2595 c0 -19 4 -35 8 -35 4 0 6 16 4 35 -2 19 -6 35 -8 35 -2 0
-4 -16 -4 -35z"/>
<path d="M3791 2604 c0 -11 3 -14 6 -6 3 7 2 16 -1 19 -3 4 -6 -2 -5 -13z"/>
<path d="M6841 2604 c0 -11 3 -14 6 -6 3 7 2 16 -1 19 -3 4 -6 -2 -5 -13z"/>
<path d="M8352 2585 c-6 -14 -8 -25 -3 -25 8 0 23 41 17 47 -1 2 -8 -8 -14
-22z"/>
<path d="M9121 2603 c-1 -6 -4 -20 -7 -30 -5 -17 -5 -17 6 0 6 10 9 23 6 30
-3 9 -5 9 -5 0z"/>
<path d="M8072 2580 c0 -14 2 -19 5 -12 2 6 2 18 0 25 -3 6 -5 1 -5 -13z"/>
<path d="M5190 2581 c0 -6 4 -13 10 -16 6 -3 7 1 4 9 -7 18 -14 21 -14 7z"/>
<path d="M4050 2570 c0 -5 5 -10 10 -10 6 0 10 5 10 10 0 6 -4 10 -10 10 -5 0
-10 -4 -10 -10z"/>
<path d="M8180 2570 c0 -5 5 -10 11 -10 5 0 7 5 4 10 -3 6 -8 10 -11 10 -2 0
-4 -4 -4 -10z"/>
<path d="M7848 2563 c7 -3 16 -2 19 1 4 3 -2 6 -13 5 -11 0 -14 -3 -6 -6z"/>
<path d="M7888 2563 c6 -2 18 -2 25 0 6 3 1 5 -13 5 -14 0 -19 -2 -12 -5z"/>
</g>
</svg>
